name rise49.5252peak65.1548fall88.8305.mot
datacolumns 19
datarows 32
range 10.39495700000000 10.44662600000000
endheader
time	ground_force1_vx	ground_force1_vy	ground_force1_vz	ground_force1_px	ground_force1_py	ground_force1_pz	ground_force2_vx	ground_force2_vy	ground_force2_vz	ground_force2_px	ground_force2_py	ground_force2_pz	ground_torque1_x	ground_torque1_y	ground_torque1_z	ground_torque2_x	ground_torque2_y	ground_torque2_z	
10.39495700000000	-40.02288900000000	755.67099900000005	54.16867300000000	0.19115900000000	0.00000000000000	0.10873100000000	-15.42780800000000	91.91778900000000	8.55580000000000	0.42808000000000	0.00000000000000	-0.09607100000000	0.00000000000000	29.92471700000000	0.00000000000000	0.00000000000000	4.70344800000000	0.00000000000000	
10.39662300000000	-40.10611500000000	752.92218000000003	53.79413900000000	0.19050900000000	0.00000000000000	0.10857600000000	-14.92028500000000	97.77788900000000	8.57691300000000	0.42924600000000	0.00000000000000	-0.09646600000000	0.00000000000000	29.70856000000000	0.00000000000000	0.00000000000000	4.83561700000000	0.00000000000000	
10.39828600000000	-40.20435300000000	750.09110999999996	53.40144100000000	0.18984900000000	0.00000000000000	0.10841900000000	-14.26307100000000	103.57444099999999	8.53409800000000	0.43034000000000	0.00000000000000	-0.09684300000000	0.00000000000000	29.48916600000000	0.00000000000000	0.00000000000000	4.94073000000000	0.00000000000000	
10.39995900000000	-40.31811300000000	747.17769499999997	52.99079400000000	0.18918000000000	0.00000000000000	0.10825800000000	-13.48407200000000	109.35728400000001	8.43707500000000	0.43137300000000	0.00000000000000	-0.09720300000000	0.00000000000000	29.26683100000000	0.00000000000000	0.00000000000000	5.02206300000000	0.00000000000000	
10.40162500000000	-40.44785300000000	744.18176400000004	52.56244200000000	0.18850100000000	0.00000000000000	0.10809300000000	-12.60927100000000	115.17571400000000	8.29502400000000	0.43235400000000	0.00000000000000	-0.09754800000000	0.00000000000000	29.04185300000000	0.00000000000000	0.00000000000000	5.08279600000000	0.00000000000000	
10.40329300000000	-40.59397600000000	741.10307299999999	52.11666100000000	0.18781500000000	0.00000000000000	0.10792600000000	-11.66137800000000	121.07488600000001	8.11601300000000	0.43329000000000	0.00000000000000	-0.09787900000000	0.00000000000000	28.81453100000000	0.00000000000000	0.00000000000000	5.12575600000000	0.00000000000000	
10.40496100000000	-40.75683100000000	737.94129799999996	51.65376000000000	0.18712200000000	0.00000000000000	0.10775500000000	-10.65896800000000	127.09312600000000	7.90660400000000	0.43418900000000	0.00000000000000	-0.09819700000000	0.00000000000000	28.58516500000000	0.00000000000000	0.00000000000000	5.15323600000000	0.00000000000000	
10.40662100000000	-40.93670900000000	734.69603400000005	51.17407300000000	0.18642200000000	0.00000000000000	0.10758000000000	-9.61606800000000	133.26019800000000	7.67164800000000	0.43505500000000	0.00000000000000	-0.09850400000000	0.00000000000000	28.35405300000000	0.00000000000000	0.00000000000000	5.16688500000000	0.00000000000000	
10.40828600000000	-41.13383800000000	731.36679200000003	50.67796800000000	0.18571700000000	0.00000000000000	0.10740300000000	-8.54215300000000	139.59648600000000	7.41424100000000	0.43589600000000	0.00000000000000	-0.09880000000000	0.00000000000000	28.12148800000000	0.00000000000000	0.00000000000000	5.16766800000000	0.00000000000000	
10.40995700000000	-41.34838300000000	727.95299599999998	50.16583500000000	0.18500800000000	0.00000000000000	0.10722200000000	-7.44248900000000	146.11299199999999	7.13581900000000	0.43671500000000	0.00000000000000	-0.09908600000000	0.00000000000000	27.88776000000000	0.00000000000000	0.00000000000000	5.15588300000000	0.00000000000000	
10.41162100000000	-41.58044100000000	724.45398799999998	49.63809500000000	0.18429600000000	0.00000000000000	0.10703800000000	-6.31870400000000	152.81198800000001	6.83636300000000	0.43751500000000	0.00000000000000	-0.09936300000000	0.00000000000000	27.65315100000000	0.00000000000000	0.00000000000000	5.13123000000000	0.00000000000000	
10.41328900000000	-41.83004100000000	720.86902199999997	49.09519200000000	0.18358200000000	0.00000000000000	0.10685100000000	-5.16953800000000	159.68817000000001	6.51467700000000	0.43830100000000	0.00000000000000	-0.09963000000000	0.00000000000000	27.41793800000000	0.00000000000000	0.00000000000000	5.09291100000000	0.00000000000000	
10.41495700000000	-42.09714100000000	717.19726800000001	48.53759500000000	0.18286700000000	0.00000000000000	0.10666000000000	-3.99165500000000	166.73011800000000	6.16869700000000	0.43907500000000	0.00000000000000	-0.09989000000000	0.00000000000000	27.18238600000000	0.00000000000000	0.00000000000000	5.03974800000000	0.00000000000000	
10.41662500000000	-42.38162400000000	713.43781500000000	47.96579400000000	0.18215300000000	0.00000000000000	0.10646700000000	-2.78046200000000	173.92191399999999	5.79581800000000	0.43983900000000	0.00000000000000	-0.10014100000000	0.00000000000000	26.94674900000000	0.00000000000000	0.00000000000000	4.97031400000000	0.00000000000000	
10.41829200000000	-42.68329900000000	709.58966599999997	47.38030000000000	0.18144100000000	0.00000000000000	0.10627000000000	-1.53086500000000	181.24475200000001	5.39319800000000	0.44059700000000	0.00000000000000	-0.10038500000000	0.00000000000000	26.71126800000000	0.00000000000000	0.00000000000000	4.88305500000000	0.00000000000000	
10.41995800000000	-43.00189500000000	705.65174999999999	46.78164600000000	0.18073200000000	0.00000000000000	0.10607000000000	-0.23792000000000	188.67843600000000	4.95802800000000	0.44134900000000	0.00000000000000	-0.10062200000000	0.00000000000000	26.47617200000000	0.00000000000000	0.00000000000000	4.77640700000000	0.00000000000000	
10.42162400000000	-43.33706300000000	701.62291700000003	46.17037800000000	0.18002800000000	0.00000000000000	0.10586700000000	1.10264800000000	196.20267799999999	4.48775400000000	0.44209700000000	0.00000000000000	-0.10085200000000	0.00000000000000	26.24167200000000	0.00000000000000	0.00000000000000	4.64889200000000	0.00000000000000	
10.42329100000000	-43.68837200000000	697.50194999999997	45.54706100000000	0.17933000000000	0.00000000000000	0.10566100000000	2.49406900000000	203.79812799999999	3.98023900000000	0.44284200000000	0.00000000000000	-0.10107500000000	0.00000000000000	26.00796300000000	0.00000000000000	0.00000000000000	4.49919200000000	0.00000000000000	
10.42495500000000	-44.05531100000000	693.28756099999998	44.91227500000000	0.17863900000000	0.00000000000000	0.10545100000000	3.93830800000000	211.44713300000001	3.43387500000000	0.44358600000000	0.00000000000000	-0.10129200000000	0.00000000000000	25.77522200000000	0.00000000000000	0.00000000000000	4.32620200000000	0.00000000000000	
10.42662500000000	-44.43728300000000	688.97840199999996	44.26661000000000	0.17795800000000	0.00000000000000	0.10523900000000	5.43596100000000	219.13420099999999	2.84763600000000	0.44432800000000	0.00000000000000	-0.10150300000000	0.00000000000000	25.54360800000000	0.00000000000000	0.00000000000000	4.12906300000000	0.00000000000000	
10.42828800000000	-44.83360700000000	684.57307100000003	43.61066900000000	0.17728700000000	0.00000000000000	0.10502400000000	6.98628600000000	226.84621700000000	2.22108500000000	0.44507000000000	0.00000000000000	-0.10170800000000	0.00000000000000	25.31325500000000	0.00000000000000	0.00000000000000	3.90717600000000	0.00000000000000	
10.42995200000000	-45.24351600000000	680.07011499999999	42.94506300000000	0.17662700000000	0.00000000000000	0.10480600000000	8.58730900000000	234.57243000000000	1.55434300000000	0.44581300000000	0.00000000000000	-0.10190700000000	0.00000000000000	25.08428100000000	0.00000000000000	0.00000000000000	3.66019400000000	0.00000000000000	
10.43162600000000	-45.66616000000000	675.46803999999997	42.27041000000000	0.17598100000000	0.00000000000000	0.10458600000000	10.23600200000000	242.30427200000000	0.84803300000000	0.44655500000000	0.00000000000000	-0.10210100000000	0.00000000000000	24.85677700000000	0.00000000000000	0.00000000000000	3.38800800000000	0.00000000000000	
10.43328600000000	-46.10060100000000	670.76531899999998	41.58733400000000	0.17535000000000	0.00000000000000	0.10436200000000	11.92850000000000	250.03504400000000	0.10319700000000	0.44729700000000	0.00000000000000	-0.10228900000000	0.00000000000000	24.63081500000000	0.00000000000000	0.00000000000000	3.09071700000000	0.00000000000000	
10.43495100000000	-46.54581600000000	665.96039900000005	40.89646300000000	0.17473600000000	0.00000000000000	0.10413600000000	13.66033400000000	257.75953800000002	-0.67878600000000	0.44804000000000	0.00000000000000	-0.10247200000000	0.00000000000000	24.40643900000000	0.00000000000000	0.00000000000000	2.76860500000000	0.00000000000000	
10.43662600000000	-47.00070000000000	661.05171499999994	40.19842700000000	0.17413900000000	0.00000000000000	0.10390700000000	15.42665300000000	265.47361999999998	-1.49628900000000	0.44878200000000	0.00000000000000	-0.10264900000000	0.00000000000000	24.18367100000000	0.00000000000000	0.00000000000000	2.42209900000000	0.00000000000000	
10.43829100000000	-47.46406100000000	656.03769399999999	39.49385700000000	0.17356100000000	0.00000000000000	0.10367500000000	17.22244000000000	273.17383500000000	-2.34752100000000	0.44952300000000	0.00000000000000	-0.10282200000000	0.00000000000000	23.96251000000000	0.00000000000000	0.00000000000000	2.05174300000000	0.00000000000000	
10.43995600000000	-47.93462700000000	650.91677600000003	38.78338100000000	0.17300400000000	0.00000000000000	0.10344100000000	19.04267700000000	280.85703899999999	-3.23059400000000	0.45026300000000	0.00000000000000	-0.10299000000000	0.00000000000000	23.74292800000000	0.00000000000000	0.00000000000000	1.65817100000000	0.00000000000000	
10.44163800000000	-48.41104300000000	645.68741699999998	38.06762700000000	0.17246900000000	0.00000000000000	0.10320400000000	20.88249300000000	288.52010500000000	-4.14358500000000	0.45100200000000	0.00000000000000	-0.10315300000000	0.00000000000000	23.52487300000000	0.00000000000000	0.00000000000000	1.24207700000000	0.00000000000000	
10.44329200000000	-48.89187800000000	640.34810900000002	37.34721600000000	0.17195700000000	0.00000000000000	0.10296500000000	22.73725500000000	296.15969500000000	-5.08457700000000	0.45173800000000	0.00000000000000	-0.10331100000000	0.00000000000000	23.30826800000000	0.00000000000000	0.00000000000000	0.80420100000000	0.00000000000000	
10.44495100000000	-49.37562500000000	634.89739299999997	36.62276600000000	0.17146900000000	0.00000000000000	0.10272400000000	24.60263500000000	303.77210900000000	-6.05168600000000	0.45247000000000	0.00000000000000	-0.10346500000000	0.00000000000000	23.09301200000000	0.00000000000000	0.00000000000000	0.34531700000000	0.00000000000000	
10.44662600000000	-49.86070400000000	629.33387300000004	35.89488700000000	0.17100800000000	0.00000000000000	0.10248000000000	26.47462500000000	311.35321499999998	-7.04307700000000	0.45319900000000	0.00000000000000	-0.10361400000000	0.00000000000000	22.87898000000000	0.00000000000000	0.00000000000000	-0.13377800000000	0.00000000000000	
